<svg xmlns="http://www.w3.org/2000/svg" width="492" height="151" viewBox="0 0 492 151">
  <metadata><?xpacket begin="﻿" id="W5M0MpCehiHzreSzNTczkc9d"?>
<x:xmpmeta xmlns:x="adobe:ns:meta/" x:xmptk="Adobe XMP Core 5.6-c142 79.160924, 2017/07/13-01:06:39        ">
   <rdf:RDF xmlns:rdf="http://www.w3.org/1999/02/22-rdf-syntax-ns#">
      <rdf:Description rdf:about=""/>
   </rdf:RDF>
</x:xmpmeta>
                                                                                                    
                                                                                                    
                                                                                                    
                                                                                                    
                                                                                                    
                                                                                                    
                                                                                                    
                                                                                                    
                                                                                                    
                                                                                                    
                                                                                                    
                                                                                                    
                                                                                                    
                                                                                                    
                                                                                                    
                                                                                                    
                                                                                                    
                                                                                                    
                                                                                                    
                                                                                                    
                           
<?xpacket end="w"?></metadata>
<defs>
    <style>
      .cls-1 {
        fill-rule: evenodd;
      }

      .cls-2 {
        fill: #ebebeb;
      }

      .cls-3 {
        fill: #ce2b37;
      }

      .cls-4 {
        fill: #009246;
      }
    </style>
  </defs>
  <path id="SaporiVeri" class="cls-1" d="M129.058,46.755q15.856-7.581,23.987-15.308t8.13-13.513a4.724,4.724,0,0,0-1.941-3.772,7.712,7.712,0,0,0-5.017-1.575q-10.035,0-27.027,12.03T97.161,57.405q-19.41,4.769-29.883,4.768-14.576,0-22.156-5.61T37.542,43.544q0-11.515,15.124-23.177T93.06,8.706a92.9,92.9,0,0,1,11.352.732l0.147-.659Q97.967,8.12,91.888,8.12q-25.342,0-40.32,10.364T36.59,42.91q0,8.423,7.874,14.209t22.3,5.786q12.964,0,29.736-4.614-14.8,22.077-24.39,31.87a65.966,65.966,0,0,1-21.423,14.816A61.362,61.362,0,0,1,26.482,110q-9.156,0-14.026-3.171t-4.871-8.35a6.436,6.436,0,0,1,.842-3.28q0.841-1.459,1.721-1.459a2.61,2.61,0,0,1,.732.288,5.912,5.912,0,0,0-.146,1.008,2.85,2.85,0,0,0,1.135,2.2,3.976,3.976,0,0,0,2.673.973,4.157,4.157,0,0,0,3-1.209,3.89,3.89,0,0,0,1.245-2.893,3.511,3.511,0,0,0-1.428-2.93,5.537,5.537,0,0,0-3.479-1.1A7.036,7.036,0,0,0,8.5,92.524a8.5,8.5,0,0,0-2.234,5.947q0,5.548,5.457,8.9t14.758,3.356q19.628,0,38.562-10.656t39.222-43.982Q113.2,54.336,129.058,46.755ZM120.525,33.9q10.327-11.479,18.824-15.881t14.941-4.4a6.029,6.029,0,0,1,4.175,1.321,4.26,4.26,0,0,1,1.465,3.3q0,8.07-17.945,20.026a123.539,123.539,0,0,1-37.207,17.017A116.631,116.631,0,0,1,120.525,33.9Zm6.423,53.253q0.1-1.245.1-2.051,0-3.516-4.167-3.516-8.04,0-19.771,7.214T91.375,104.36a8.447,8.447,0,0,0,1.281,4.871,4.072,4.072,0,0,0,3.55,1.868q5.418,0,20.276-12.232l0.292,0.22q-2.987,4.614-2.987,7.69a4.847,4.847,0,0,0,.985,3.04,3.264,3.264,0,0,0,2.74,1.282q1.971,0,5.8-2.381t15.592-12.341l-0.513-.513q-11.059,9.4-14.941,11.989t-5.64,2.586a2.9,2.9,0,0,1-1.721-.615,2.144,2.144,0,0,1-.842-1.851q0-1.884,3.035-5l20.549-21.46h-6.489Zm-2.757,2.946q-1.9,2.74-8.988,8.8a77.83,77.83,0,0,1-11.949,8.766q-4.86,2.7-6.979,2.7a2.987,2.987,0,0,1-2.266-.84,2.56,2.56,0,0,1-.8-1.79q0-4.308,11.729-14.865t17.8-10.556q3.36,0,3.361,2.63A9.17,9.17,0,0,1,124.191,90.094Zm49.8-20.89,0.293,0.44-76.391,74.78h7.2l18.818-19.19q21.527-21.826,36.977-33.361t20.648-11.536a3.406,3.406,0,0,1,2.05.7,2.138,2.138,0,0,1,.952,1.8q0,2.276-3.955,5.507l-4.175,3.377q-5.64,4.553-7.251,6.167a14.274,14.274,0,0,0-2.637,3.634,9.655,9.655,0,0,0-1.025,4.441,4.984,4.984,0,0,0,1.387,3.892A4.667,4.667,0,0,0,170.1,111.1q5.04,0,22.424-14.722l-0.512-.513q-16.7,14.356-21.753,14.356-3.3,0-3.3-2.569,0-2.5,10.293-10.353,6.615-5.212,7.866-7.819a10.871,10.871,0,0,0,1.25-4.589A5.6,5.6,0,0,0,184.979,81a4.3,4.3,0,0,0-3.3-1.541q-7.47,0-29.581,18.677l-0.366-.586,4.174-4.028L186.956,61l-4.614.22q-8.071,6.812-9.757,8.057l-9.979,7.4q-13.425,9.961-24.21,19.189l0.514,0.513q14.9-12.744,35.082-27.173h0Zm45.484,29A4.312,4.312,0,0,1,215.96,96.6q6.591-7.69,6.592-11.792,0-3.955-4.175-3.955-4.248,0-11.462,3.186a40.3,40.3,0,0,0-12.781,8.936q-5.568,5.751-5.567,11.975a5.906,5.906,0,0,0,1.465,4.248,4.76,4.76,0,0,0,3.589,1.538q4.1,0,10.254-3.881a60.436,60.436,0,0,0,11.572-9.6A5.256,5.256,0,0,0,219.4,98.94a8.111,8.111,0,0,0,5.567-2.563l-0.513-.513a7.352,7.352,0,0,1-4.98,2.344h0Zm-0.068-7.361a63.137,63.137,0,0,1-6.759,8.2,41.789,41.789,0,0,1-10.084,7.764Q196.828,110,193.76,110a3.572,3.572,0,0,1-2.338-.842,2.41,2.41,0,0,1-1.024-1.868q0-3.588,11.217-14.722t16.77-11.133a3.628,3.628,0,0,1,2.375.879,2.816,2.816,0,0,1,1.059,2.27Q221.819,87.222,219.408,90.847Zm20.948-7.068A5.868,5.868,0,0,0,241.9,84a17.13,17.13,0,0,0,5.723-1.1l0.294,0.513a106.726,106.726,0,0,1-8.213,8.643,59.867,59.867,0,0,0-7.736,8.569,10.189,10.189,0,0,0-1.8,5.566,5.141,5.141,0,0,0,1.208,3.553,4.237,4.237,0,0,0,3.333,1.355q7.177,0,24.243-14.722l-0.513-.513q-9.083,7.951-14.941,11.227t-8.643,3.275q-2.344,0-2.343-2.056a3.079,3.079,0,0,1,.584-1.691q0.586-.881,4.9-5.4t8.671-8.521a27,27,0,0,0,5.745-6.722l-3.876-4.321a14.98,14.98,0,0,1-6.1,1.465,5.5,5.5,0,0,1-2.977-.659,1.769,1.769,0,0,1-1.017-1.318,2.258,2.258,0,0,1,.072-0.366,2.97,2.97,0,0,0,1.658.586,2.565,2.565,0,0,0,1.945-.842,2.832,2.832,0,0,0,.793-2.014,2.757,2.757,0,0,0-.769-1.978,2.336,2.336,0,0,0-1.721-.806,3.163,3.163,0,0,0-2.381,1.172,3.915,3.915,0,0,0-1.062,2.71,4.256,4.256,0,0,0,2.349,3.809,39.6,39.6,0,0,1-3.737,3.3l-11.136,9.155,0.513,0.513Zm53.761-18.6a2.336,2.336,0,0,0-1.81-.806,3.789,3.789,0,0,0-2.752,1.245,3.727,3.727,0,0,0-1.232,2.637,2.624,2.624,0,0,0,.725,1.868,2.3,2.3,0,0,0,1.738.769,4.213,4.213,0,0,0,2.752-1.1,3.41,3.41,0,0,0,1.3-2.71A2.756,2.756,0,0,0,294.117,65.176Zm-27.9,25.2,6.749-5.127,0.15,0.366q-12.178,11.719-14.05,14.832a11.525,11.525,0,0,0-1.871,5.9,4.327,4.327,0,0,0,1.136,3.149,3.943,3.943,0,0,0,2.966,1.172q5.712,0,22.046-14.282l-0.513-.513q-10.695,9.3-14.978,11.682t-6.628,2.381a2.479,2.479,0,0,1-1.831-.733,2.31,2.31,0,0,1-.733-1.684V107a6.919,6.919,0,0,1,1.758-2.637l23.234-22.851h-7.1q-14.518,11.28-18.113,14.356l0.514,0.513ZM326.263,111.1q12.231-1.611,29.187-13.138t40.429-36.3q23.474-24.774,30.725-31.4A162.614,162.614,0,0,1,442.1,17.781a67.227,67.227,0,0,1,14.759-8.307,35.358,35.358,0,0,1,12.451-2.452q5.344,0,8.313,2.234a6.468,6.468,0,0,1,2.966,5.237q0,1.466-.952,1.465a3.729,3.729,0,0,0-6.738,2.2,3.379,3.379,0,0,0,1.135,2.49,3.8,3.8,0,0,0,2.746,1.1,5.1,5.1,0,0,0,3.882-1.868,6.49,6.49,0,0,0,1.685-4.5A8.1,8.1,0,0,0,478.9,8.743q-3.442-2.673-9.594-2.673-6.739,0-15.821,4.1T433.526,23.306q-10.877,9.04-29.773,29.02T374.786,81.42A175.987,175.987,0,0,1,355.267,96.9a132.135,132.135,0,0,1-15.6,9.331,38.863,38.863,0,0,1-11.572,3.7l-0.22-.586a314.035,314.035,0,0,0,27.795-26.6q12.707-13.795,18.2-21.555l6.665-9.368q10.4-14.49,16.3-21.846a180.044,180.044,0,0,1,12.561-14.09l7.544-7.611L416.2,7.461Q396.575,27.31,382.146,27.31a5.572,5.572,0,0,1-3-.732,2.131,2.131,0,0,1-1.172-1.831,7.569,7.569,0,0,1,.695-2.161,7.735,7.735,0,0,0,.7-2.966q0-3.661-5.566-7.471T359.3,8.34a40.088,40.088,0,0,0-22.376,6.519q-10,6.52-10,15.967,0,5.421,5.31,9.375a19.437,19.437,0,0,0,11.9,3.955q13.4,0,26.806-14.209l-0.293-.44Q355.413,41.959,342.6,41.958a17.051,17.051,0,0,1-10.474-3.215,9.933,9.933,0,0,1-4.321-8.332q0-8.477,10-14.907a38.2,38.2,0,0,1,20.984-6.432A26.749,26.749,0,0,1,370.1,11.233q4.65,2.161,4.651,4.431a6.578,6.578,0,0,1-1.062,2.38,6.831,6.831,0,0,0-1.062,3.479q0,2.345,2.527,4.5a10.3,10.3,0,0,0,6.921,2.161q10.109,0,23.365-9.821L405.8,18.66l-28.418,29.2a154.619,154.619,0,0,0-13.77,16.175L353,78.9Q343.548,92,337.688,98.656A84.723,84.723,0,0,1,325.6,110.073Zm71.96-3.846q-6.995,3.335-10.8,3.333a4.572,4.572,0,0,1-3.076-1.135A3.246,3.246,0,0,1,383.025,107q0-2.783,7.489-10.254A41.48,41.48,0,0,0,406.3,91.836q7.12-3.955,7.122-7.544a1.986,1.986,0,0,0-.842-1.611,3.173,3.173,0,0,0-2.015-.659q-6.372,0-17.688,7.324t-11.315,15.6q0,6.153,5.993,6.153,4.31,0,11.546-3.479t16-11.243l-0.512-.513Q405.217,103.922,398.223,107.253Zm1.323-18.5a51.067,51.067,0,0,1,7.012-4.824,9.433,9.433,0,0,1,4.223-1.179,1.341,1.341,0,0,1,1.615,1.4q0,1.988-3.708,5.008A29.958,29.958,0,0,1,399.4,94.1q-5.582,1.916-7.784,1.915A59.923,59.923,0,0,1,399.546,88.756Zm30.947-4.977a5.868,5.868,0,0,0,1.542.22,17.13,17.13,0,0,0,5.723-1.1l0.294,0.513a106.909,106.909,0,0,1-8.213,8.643,59.893,59.893,0,0,0-7.737,8.569,10.2,10.2,0,0,0-1.8,5.566,5.136,5.136,0,0,0,1.208,3.553,4.237,4.237,0,0,0,3.333,1.355q7.176,0,24.243-14.722l-0.513-.513q-9.082,7.951-14.941,11.227t-8.643,3.275q-2.344,0-2.344-2.056a3.08,3.08,0,0,1,.585-1.691q0.585-.881,4.9-5.4t8.671-8.521a27.019,27.019,0,0,0,5.745-6.722l-3.876-4.321a14.983,14.983,0,0,1-6.1,1.465,5.508,5.508,0,0,1-2.978-.659,1.77,1.77,0,0,1-1.016-1.318,2.258,2.258,0,0,1,.072-0.366,2.97,2.97,0,0,0,1.657.586,2.568,2.568,0,0,0,1.946-.842,2.837,2.837,0,0,0,.793-2.014,2.761,2.761,0,0,0-.769-1.978,2.336,2.336,0,0,0-1.721-.806,3.162,3.162,0,0,0-2.381,1.172,3.915,3.915,0,0,0-1.062,2.71,4.256,4.256,0,0,0,2.349,3.809,39.6,39.6,0,0,1-3.737,3.3l-11.136,9.155,0.512,0.513Zm53.761-18.6a2.336,2.336,0,0,0-1.81-.806,3.793,3.793,0,0,0-2.753,1.245,3.73,3.73,0,0,0-1.231,2.637,2.624,2.624,0,0,0,.724,1.868,2.3,2.3,0,0,0,1.739.769,4.215,4.215,0,0,0,2.752-1.1,3.41,3.41,0,0,0,1.3-2.71A2.756,2.756,0,0,0,484.254,65.176Zm-27.9,25.2,6.75-5.127,0.15,0.366q-12.18,11.719-14.05,14.832a11.525,11.525,0,0,0-1.871,5.9,4.331,4.331,0,0,0,1.135,3.149,3.947,3.947,0,0,0,2.967,1.172q5.712,0,22.045-14.282l-0.512-.513q-10.695,9.3-14.978,11.682t-6.629,2.381a2.482,2.482,0,0,1-1.831-.733,2.313,2.313,0,0,1-.732-1.684V107a6.919,6.919,0,0,1,1.758-2.637l23.233-22.851h-7.1q-14.52,11.28-18.113,14.356l0.514,0.513Z"/>
  <rect class="cls-2" x="118" y="134" width="256" height="10"/>
  <rect class="cls-3" x="289" y="134" width="85" height="10"/>
  <rect class="cls-4" x="118" y="134" width="85" height="10"/>
</svg>
